<svg xmlns="http://www.w3.org/2000/svg" width="20.255" height="17.361" viewBox="0 0 20.255 17.361">
  <path id="bars-solid_1_" data-name="bars-solid (1)" d="M0,65.447A1.445,1.445,0,0,1,1.447,64H18.808a1.447,1.447,0,1,1,0,2.894H1.447A1.445,1.445,0,0,1,0,65.447Zm0,7.234a1.445,1.445,0,0,1,1.447-1.447H18.808a1.447,1.447,0,1,1,0,2.894H1.447A1.445,1.445,0,0,1,0,72.681Zm20.255,7.234a1.445,1.445,0,0,1-1.447,1.447H1.447a1.447,1.447,0,1,1,0-2.894H18.808A1.445,1.445,0,0,1,20.255,79.914Z" transform="translate(0 -64)" fill="#fff"/>
</svg>
