<svg xmlns="http://www.w3.org/2000/svg" width="17.621" height="20.138" viewBox="0 0 17.621 20.138">
  <path id="utensils-solid" d="M16.362,0c-.629,0-5.035,1.259-5.035,6.923v4.405a2.52,2.52,0,0,0,2.517,2.517H15.1V18.88a1.259,1.259,0,1,0,2.517,0V1.259A1.257,1.257,0,0,0,16.362,0ZM2.517.629A.629.629,0,0,0,1.274.492L.083,5.853a3.463,3.463,0,0,0,3.064,4.2V18.88a1.259,1.259,0,1,0,2.517,0V10.053a3.463,3.463,0,0,0,3.064-4.2L7.536.492A.629.629,0,0,0,6.293.629V5.908a.386.386,0,0,1-.771.031L5.031.574a.628.628,0,0,0-1.251,0L3.292,5.939a.386.386,0,0,1-.771-.031V.629Zm1.9,5.979H4.393l.012-.028Z" fill="#fff" opacity="0.7"/>
</svg>
