<svg xmlns="http://www.w3.org/2000/svg" width="17.105" height="13.303" viewBox="0 0 17.105 13.303">
  <path id="eye-solid_1_" data-name="eye-solid (1)" d="M8.576,32a8.356,8.356,0,0,0-5.719,2.393A11.765,11.765,0,0,0,.1,38.286a.944.944,0,0,0,0,.73A11.765,11.765,0,0,0,2.857,42.91,8.356,8.356,0,0,0,8.576,45.3,8.356,8.356,0,0,0,14.3,42.91a11.855,11.855,0,0,0,2.762-3.893.944.944,0,0,0,0-.73A11.825,11.825,0,0,0,14.3,34.393,8.356,8.356,0,0,0,8.576,32ZM4.3,38.651a4.276,4.276,0,1,1,4.276,4.276A4.276,4.276,0,0,1,4.3,38.651Zm4.276-1.9a1.9,1.9,0,0,1-1.9,1.9,1.928,1.928,0,0,1-.6-.1.253.253,0,0,0-.347.22,2.755,2.755,0,0,0,.1.615A2.851,2.851,0,1,0,8.7,35.8a.252.252,0,0,0-.22.347,1.928,1.928,0,0,1,.1.6Z" transform="translate(-0.025 -32)" fill="#fff"/>
</svg>
