<svg xmlns="http://www.w3.org/2000/svg" xmlns:xlink="http://www.w3.org/1999/xlink" width="194.123" height="90.954" viewBox="0 0 194.123 90.954">
  <defs>
    <clipPath id="clip-path">
      <rect id="Rectangle_43" data-name="Rectangle 43" width="194.123" height="90.954" fill="none"/>
    </clipPath>
  </defs>
  <g id="Group_30" data-name="Group 30" transform="translate(0 0)">
    <rect id="Rectangle_39" data-name="Rectangle 39" width="49.327" height="0.755" transform="translate(0.203 87.196)" fill="#04272c"/>
    <rect id="Rectangle_40" data-name="Rectangle 40" width="49.327" height="0.755" transform="translate(143.517 87.196)" fill="#04272c"/>
    <path id="Path_30" data-name="Path 30" d="M0,20.562v17.5H3.113V29.089H9.327V27.946H3.113V21.691h8.91V20.562Z" transform="translate(0 36.496)" fill="#04272c"/>
    <g id="Group_29" data-name="Group 29" transform="translate(0 0)">
      <g id="Group_28" data-name="Group 28" clip-path="url(#clip-path)">
        <path id="Path_31" data-name="Path 31" d="M22.669,20.562V31.928a5.636,5.636,0,0,1-.405,2.1,5.128,5.128,0,0,1-1.143,1.723,5.5,5.5,0,0,1-1.812,1.174,6.273,6.273,0,0,1-2.386.419,6.274,6.274,0,0,1-2.375-.419,5.664,5.664,0,0,1-1.823-1.174,5.344,5.344,0,0,1-1.16-1.723,5.636,5.636,0,0,1-.405-2.1V20.562H8.048V31.839a6.483,6.483,0,0,0,.519,2.592,5.8,5.8,0,0,0,1.507,2.1,7.4,7.4,0,0,0,2.461,1.418,10.176,10.176,0,0,0,3.388.522,11.591,11.591,0,0,0,3.691-.522,6.888,6.888,0,0,0,2.506-1.418,5.21,5.21,0,0,0,1.446-2.07,7.007,7.007,0,0,0,.463-2.534V20.562Z" transform="translate(14.285 36.497)" fill="#04272c"/>
        <path id="Path_32" data-name="Path 32" d="M32.812,20.562v12.8h-.144l-13.736-12.8H17.181v17.5H18.6V24.238h.1L33.448,38.471h.724V20.562Z" transform="translate(30.495 36.497)" fill="#04272c"/>
        <rect id="Rectangle_41" data-name="Rectangle 41" width="3.113" height="17.504" transform="translate(74.415 57.058)" fill="#04272c"/>
        <path id="Path_33" data-name="Path 33" d="M47.474,34.893a7.774,7.774,0,0,1-1.39,1.288,7.279,7.279,0,0,1-1.679.941,5.2,5.2,0,0,1-1.881.35,8.288,8.288,0,0,1-3.027-.536A6.79,6.79,0,0,1,37.08,35.4a7.1,7.1,0,0,1-1.621-2.478,8.731,8.731,0,0,1-.58-3.286,8.7,8.7,0,0,1,.594-3.33,7.2,7.2,0,0,1,1.621-2.489,7.129,7.129,0,0,1,2.447-1.593,8.137,8.137,0,0,1,3-.549,5.709,5.709,0,0,1,3.3.982,8.643,8.643,0,0,1,2.592,3.113l1.362-.855a11.332,11.332,0,0,0-1.376-1.693,10.074,10.074,0,0,0-1.823-1.435,10.9,10.9,0,0,0-2.273-1,9.776,9.776,0,0,0-2.736-.375,11.7,11.7,0,0,0-2.911.347,10.649,10.649,0,0,0-2.52.941,9.709,9.709,0,0,0-2.07,1.476,9.044,9.044,0,0,0-1.548,1.868,9.192,9.192,0,0,0-.971,2.187,8.954,8.954,0,0,0-.333,2.4,8.7,8.7,0,0,0,2.808,6.4,10.106,10.106,0,0,0,3.213,1.97,11.655,11.655,0,0,0,4.185.721,11.078,11.078,0,0,0,2.883-.361,10.22,10.22,0,0,0,2.314-1,8.7,8.7,0,0,0,1.8-1.449,10.592,10.592,0,0,0,1.362-1.693l-1.318-.8a8.251,8.251,0,0,1-1,1.462" transform="translate(55.431 36.238)" fill="#04272c"/>
        <path id="Path_34" data-name="Path 34" d="M55.905,20.562V31.928a5.627,5.627,0,0,1-.391,2.1,5.343,5.343,0,0,1-1.143,1.723,5.817,5.817,0,0,1-1.809,1.174,6.3,6.3,0,0,1-2.389.419,6.225,6.225,0,0,1-2.375-.419,5.378,5.378,0,0,1-1.823-1.174,4.935,4.935,0,0,1-1.16-1.723,5.371,5.371,0,0,1-.4-2.1V20.562H41.3V31.839a6.721,6.721,0,0,0,.505,2.592,6.009,6.009,0,0,0,1.507,2.1,7.332,7.332,0,0,0,2.475,1.418,10.091,10.091,0,0,0,3.374.522,11.591,11.591,0,0,0,3.691-.522,6.816,6.816,0,0,0,2.52-1.418,5.543,5.543,0,0,0,1.449-2.07,7.056,7.056,0,0,0,.447-2.534V20.562Z" transform="translate(73.301 36.497)" fill="#04272c"/>
        <path id="Path_35" data-name="Path 35" d="M53.1,36.922V20.561H49.988v17.5H62.412V36.922Z" transform="translate(88.726 36.496)" fill="#04272c"/>
        <path id="Path_36" data-name="Path 36" d="M65.843,20.416H65.06L56.411,38.325h1.562L64.7,24.6l6.61,13.728h3.172Z" transform="translate(100.126 36.237)" fill="#04272c"/>
        <path id="Path_37" data-name="Path 37" d="M73.43,29.581a7.951,7.951,0,0,0,1.854-.663,5.817,5.817,0,0,0,1.418-.985,3.986,3.986,0,0,0,.927-1.29,3.614,3.614,0,0,0,.333-1.535,3.949,3.949,0,0,0-.433-1.823,3.857,3.857,0,0,0-1.26-1.449,6.585,6.585,0,0,0-2.1-.941,11.6,11.6,0,0,0-2.908-.333H64.844v17.5h3.113V29.841H70.13l5.281,8.225h3.619Zm-1.751-.9a6.237,6.237,0,0,1-1.926.275h-1.8V21.647H70.68a4.541,4.541,0,0,1,1.579.277,3.894,3.894,0,0,1,1.243.721,3.459,3.459,0,0,1,.81,1.129,3.7,3.7,0,0,1,.277,1.462,3.143,3.143,0,0,1-.364,1.535,3.254,3.254,0,0,1-1.013,1.174,4.726,4.726,0,0,1-1.535.738" transform="translate(115.094 36.497)" fill="#04272c"/>
        <path id="Path_38" data-name="Path 38" d="M193.261,0H.19L2.385,2.195H191.069Z" transform="translate(0.337 0.001)" fill="#04272c"/>
        <path id="Path_39" data-name="Path 39" d="M2.562,2.372v39.49H4.754V12.245a8.776,8.776,0,1,1,17.551,0V41.862H24.5V12.245a8.777,8.777,0,0,1,17.554,0V41.862h2.189V12.245a8.778,8.778,0,0,1,17.557,0V41.862h2.192V12.245a8.777,8.777,0,1,1,17.554,0V41.862H83.74V12.245a8.774,8.774,0,1,1,17.549,0V41.862h2.195V12.245a8.777,8.777,0,1,1,17.554,0V41.862h2.195V12.245a8.776,8.776,0,1,1,17.551,0V41.862h2.195V12.245a8.774,8.774,0,1,1,17.549,0V41.862h2.195V12.245a8.776,8.776,0,1,1,17.551,0V41.862h2.2V2.372Z" transform="translate(4.547 4.211)" fill="#04272c"/>
        <path id="Path_40" data-name="Path 40" d="M23.318,31.538a1.383,1.383,0,0,0-1-.552.808.808,0,0,0-.88.838c0,1.326,2.589,1.621,2.589,3.316a1.474,1.474,0,0,1-1.584,1.537A1.855,1.855,0,0,1,20.7,35.642l.416-.236a1.425,1.425,0,0,0,1.34.794,1.007,1.007,0,0,0,1.054-.968c0-1.554-2.57-1.673-2.57-3.446a1.276,1.276,0,0,1,1.321-1.254,1.786,1.786,0,0,1,1.412.719Z" transform="translate(36.743 54.192)" fill="#04272c"/>
        <rect id="Rectangle_42" data-name="Rectangle 42" width="0.516" height="5.974" transform="translate(65.605 84.807)" fill="#04272c"/>
        <path id="Path_41" data-name="Path 41" d="M30.426,30.672h.516v6.146l-4.681-5.05v4.878h-.513V30.5l4.679,5.048Z" transform="translate(45.699 54.136)" fill="#04272c"/>
        <path id="Path_42" data-name="Path 42" d="M34.384,31.774a2.687,2.687,0,0,0-1.868-.76,2.59,2.59,0,0,0,0,5.181,2.68,2.68,0,0,0,1.9-.794l.341.339a3.076,3.076,0,1,1-.008-4.273Z" transform="translate(52.227 54.192)" fill="#04272c"/>
        <path id="Path_43" data-name="Path 43" d="M35.837,30.562v.469H33.581v2.056H35.5v.469H33.581v2.511h2.4v.469H33.068V30.562Z" transform="translate(58.693 54.246)" fill="#04272c"/>
        <path id="Path_44" data-name="Path 44" d="M37.9,31.028l.269-.466H39.34v5.974h-.516V31.028Z" transform="translate(67.265 54.247)" fill="#04272c"/>
        <path id="Path_45" data-name="Path 45" d="M41.734,36.591H41.12l1.5-1.954a1.616,1.616,0,0,1-.416.053,2.08,2.08,0,1,1,2.031-2.081,2.243,2.243,0,0,1-.491,1.365ZM40.69,32.609A1.52,1.52,0,1,0,42.208,31a1.577,1.577,0,0,0-1.518,1.609" transform="translate(71.306 54.192)" fill="#04272c"/>
        <path id="Path_46" data-name="Path 46" d="M43.686,35.221a1.384,1.384,0,0,0,1.34.985,1.263,1.263,0,0,0,1.346-1.249,1.28,1.28,0,0,0-1.157-1.276v-.425a1.07,1.07,0,0,0,.988-1.1A1.179,1.179,0,0,0,45.027,31a1.217,1.217,0,0,0-1.152.9H43.4a1.693,1.693,0,0,1,1.626-1.368,1.607,1.607,0,0,1,1.679,1.584,1.424,1.424,0,0,1-.76,1.332,1.6,1.6,0,0,1,.946,1.51,1.753,1.753,0,0,1-1.865,1.72,1.826,1.826,0,0,1-1.818-1.457Z" transform="translate(76.693 54.192)" fill="#04272c"/>
        <path id="Path_47" data-name="Path 47" d="M49.712,32.113a1.538,1.538,0,0,1-.808,1.332,1.693,1.693,0,0,1,.985,1.51,1.823,1.823,0,0,1-3.641,0,1.7,1.7,0,0,1,.98-1.51,1.522,1.522,0,0,1-.8-1.332,1.644,1.644,0,0,1,3.286,0m-2.947,2.842a1.305,1.305,0,1,0,1.3-1.249,1.268,1.268,0,0,0-1.3,1.249m.155-2.855a1.148,1.148,0,1,0,1.146-1.124A1.145,1.145,0,0,0,46.921,32.1" transform="translate(82.089 54.192)" fill="#04272c"/>
      </g>
    </g>
  </g>
</svg>
