<?xml version="1.0" encoding="utf-8"?>
<!-- Generator: Adobe Illustrator 28.2.0, SVG Export Plug-In . SVG Version: 6.00 Build 0)  -->
<svg version="1.1" id="Layer_1" xmlns="http://www.w3.org/2000/svg" xmlns:xlink="http://www.w3.org/1999/xlink" x="0px" y="0px"
	 viewBox="0 0 323.05 40.75" style="enable-background:new 0 0 323.05 40.75;" xml:space="preserve">
<style type="text/css">
	.st0{opacity:0.6;}
	.st1{fill:#FFFFFF;}
</style>
<g class="st0">
	<path class="st1" d="M26.91,14.69c-0.48-2.06-1.65-3.51-3.51-4.33c-1.04-0.45-2.2-0.68-3.47-0.68c-2.43,0-4.43,0.92-6,2.75
		c-1.57,1.84-2.35,4.6-2.35,8.28c0,3.71,0.85,6.34,2.54,7.88c1.7,1.54,3.62,2.31,5.79,2.31c2.12,0,3.86-0.61,5.21-1.82
		c1.35-1.22,2.19-2.81,2.5-4.78h-7v-5.05h12.6v16.23h-4.19l-0.64-3.77c-1.22,1.43-2.31,2.44-3.28,3.02
		c-1.67,1.02-3.72,1.53-6.15,1.53c-4.01,0-7.29-1.39-9.85-4.16c-2.67-2.79-4-6.6-4-11.44c0-4.89,1.35-8.82,4.04-11.77
		s6.26-4.43,10.69-4.43c3.84,0,6.93,0.97,9.26,2.92s3.67,4.38,4.01,7.29H26.91z"/>
	<path class="st1" d="M51.21,12.61c0.08,0.01,0.24,0.02,0.5,0.03v5.99c-0.37-0.04-0.7-0.07-0.99-0.08s-0.52-0.02-0.7-0.02
		c-2.35,0-3.93,0.77-4.74,2.3c-0.45,0.86-0.68,2.19-0.68,3.98v10.69h-5.89V13.13h5.58v3.9c0.9-1.49,1.69-2.51,2.36-3.06
		c1.09-0.92,2.52-1.37,4.27-1.37C51.05,12.6,51.14,12.6,51.21,12.61z"/>
	<path class="st1" d="M73.79,32.76c-1.89,2.33-4.75,3.49-8.6,3.49c-3.84,0-6.71-1.17-8.6-3.49c-1.89-2.33-2.83-5.13-2.83-8.41
		c0-3.22,0.94-6.02,2.83-8.38c1.89-2.36,4.75-3.55,8.6-3.55c3.84,0,6.71,1.18,8.6,3.55c1.89,2.36,2.83,5.16,2.83,8.38
		C76.62,27.62,75.68,30.43,73.79,32.76z M69.11,29.53c0.92-1.22,1.37-2.94,1.37-5.18c0-2.24-0.46-3.96-1.37-5.17
		c-0.92-1.21-2.23-1.81-3.94-1.81c-1.71,0-3.03,0.6-3.95,1.81c-0.92,1.21-1.38,2.93-1.38,5.17c0,2.24,0.46,3.97,1.38,5.18
		c0.92,1.22,2.24,1.82,3.95,1.82C66.88,31.35,68.2,30.74,69.11,29.53z"/>
	<path class="st1" d="M91.35,13.13h5.93l3.41,16.1l3.49-16.1h6.09l-6.48,22.36h-6.01L94.26,19.2l-3.55,16.29h-6.07l-6.28-22.36h6.28
		l3.49,16.04L91.35,13.13z"/>
	<path class="st1" d="M111.19,17.5v-4.16h3.12V7.1h5.78v6.24h3.63v4.16h-3.63v11.82c0,0.92,0.12,1.49,0.35,1.71
		c0.23,0.23,0.94,0.34,2.13,0.34c0.18,0,0.37,0,0.56-0.01c0.2-0.01,0.39-0.02,0.58-0.03v4.37l-2.77,0.1
		c-2.76,0.1-4.65-0.38-5.66-1.44c-0.66-0.67-0.98-1.7-0.98-3.1V17.5H111.19z"/>
	<path class="st1" d="M143.55,13.26c1.12,0.48,2.05,1.21,2.77,2.2c0.61,0.84,0.99,1.69,1.12,2.58c0.14,0.88,0.2,2.32,0.2,4.32v13.14
		h-5.97V21.88c0-1.2-0.2-2.18-0.61-2.92c-0.53-1.04-1.53-1.56-3.01-1.56c-1.53,0-2.7,0.52-3.49,1.55c-0.79,1.03-1.19,2.51-1.19,4.43
		v12.12h-5.85V5.36h5.85v10.67c0.85-1.3,1.82-2.21,2.93-2.72c1.11-0.51,2.28-0.77,3.5-0.77C141.17,12.54,142.42,12.78,143.55,13.26z
		"/>
	<path class="st1" d="M163.04,35.49V5.08h6.31v11.6h11.82V5.08h6.31v30.41h-6.31V21.91h-11.82v13.58H163.04z"/>
	<path class="st1" d="M198.98,13v13.56c0,1.28,0.15,2.24,0.45,2.89c0.53,1.14,1.58,1.71,3.14,1.71c2,0,3.37-0.81,4.11-2.43
		c0.38-0.88,0.57-2.04,0.57-3.49V13h5.96v22.49h-5.71v-3.18c-0.05,0.07-0.19,0.28-0.41,0.62c-0.22,0.34-0.48,0.65-0.78,0.91
		c-0.92,0.83-1.81,1.39-2.66,1.69c-0.86,0.3-1.86,0.45-3.01,0.45c-3.32,0-5.56-1.2-6.71-3.59c-0.65-1.32-0.97-3.27-0.97-5.84V13
		H198.98z"/>
	<path class="st1" d="M237.06,14.29c1.47,1.22,2.21,3.24,2.21,6.06v15.14h-6.02V21.81c0-1.18-0.16-2.09-0.47-2.72
		c-0.57-1.16-1.67-1.73-3.28-1.73c-1.98,0-3.34,0.85-4.08,2.54c-0.38,0.89-0.57,2.04-0.57,3.42v12.17h-5.88V13.04h5.69v3.28
		c0.75-1.16,1.47-1.99,2.14-2.5c1.21-0.91,2.73-1.36,4.58-1.36C233.7,12.46,235.59,13.07,237.06,14.29z"/>
	<path class="st1" d="M242.43,17.39v-4.19h3.14V6.93h5.82v6.27h3.65v4.19h-3.65v11.88c0,0.92,0.12,1.5,0.35,1.72
		c0.23,0.23,0.95,0.34,2.15,0.34c0.18,0,0.37,0,0.57-0.01c0.2-0.01,0.39-0.02,0.59-0.03v4.39l-2.79,0.1
		c-2.78,0.1-4.68-0.39-5.69-1.44c-0.66-0.67-0.99-1.71-0.99-3.12V17.39H242.43z"/>
	<path class="st1" d="M273.47,13.45c1.57,0.7,2.86,1.81,3.89,3.33c0.92,1.34,1.52,2.89,1.79,4.65c0.16,1.03,0.22,2.52,0.19,4.46
		h-16.38c0.09,2.26,0.87,3.84,2.35,4.75c0.9,0.56,1.98,0.85,3.24,0.85c1.34,0,2.43-0.34,3.26-1.03c0.46-0.37,0.86-0.89,1.21-1.55h6
		c-0.16,1.33-0.89,2.69-2.18,4.06c-2.01,2.19-4.83,3.28-8.46,3.28c-2.99,0-5.63-0.92-7.92-2.77s-3.43-4.85-3.43-9
		c0-3.9,1.03-6.88,3.1-8.96s4.75-3.12,8.04-3.12C270.13,12.4,271.9,12.75,273.47,13.45z M264.67,18.53
		c-0.83,0.86-1.35,2.02-1.57,3.48h10.13c-0.11-1.56-0.63-2.75-1.57-3.55c-0.94-0.81-2.1-1.21-3.49-1.21
		C266.67,17.25,265.5,17.68,264.67,18.53z"/>
	<path class="st1" d="M294.8,12.47c0.08,0.01,0.24,0.02,0.51,0.03v6.02c-0.37-0.04-0.7-0.07-0.99-0.08s-0.52-0.02-0.7-0.02
		c-2.37,0-3.96,0.77-4.77,2.31c-0.45,0.87-0.68,2.2-0.68,4v10.75h-5.92V13h5.61v3.92c0.91-1.5,1.7-2.52,2.37-3.07
		c1.1-0.92,2.53-1.38,4.29-1.38C294.63,12.46,294.73,12.47,294.8,12.47z"/>
	<path class="st1" d="M303.31,28.31c0.12,1.05,0.39,1.79,0.81,2.23c0.73,0.78,2.09,1.18,4.06,1.18c1.16,0,2.08-0.17,2.77-0.52
		c0.68-0.34,1.03-0.86,1.03-1.55c0-0.66-0.28-1.16-0.83-1.51c-0.55-0.34-2.6-0.93-6.15-1.77c-2.56-0.63-4.36-1.42-5.4-2.37
		c-1.04-0.94-1.57-2.28-1.57-4.04c0-2.08,0.82-3.86,2.45-5.35c1.63-1.49,3.93-2.24,6.9-2.24c2.81,0,5.1,0.56,6.88,1.68
		c1.77,1.12,2.79,3.06,3.05,5.81h-5.88c-0.08-0.76-0.3-1.35-0.64-1.8c-0.65-0.8-1.75-1.2-3.31-1.2c-1.28,0-2.2,0.2-2.74,0.6
		c-0.54,0.4-0.82,0.87-0.82,1.4c0,0.67,0.29,1.16,0.87,1.47c0.58,0.32,2.63,0.86,6.14,1.63c2.34,0.55,4.1,1.38,5.27,2.5
		c1.16,1.13,1.73,2.54,1.73,4.23c0,2.23-0.83,4.05-2.49,5.46c-1.66,1.41-4.23,2.12-7.7,2.12c-3.54,0-6.16-0.75-7.85-2.24
		c-1.69-1.49-2.53-3.39-2.53-5.71H303.31z"/>
</g>
</svg>
