<svg xmlns="http://www.w3.org/2000/svg" width="185.332" height="116.095" viewBox="0 0 185.332 116.095">
  <g id="გულიანი" transform="translate(-847.539 163.692)">
    <path id="Path_48" data-name="Path 48" d="M855.349-29.527a1.437,1.437,0,0,1-.918,1.363,1.721,1.721,0,0,1,1.13,1.574c0,1.575-1.181,2.079-2.645,2.079h-3.35v-7.063h3.35c1.393,0,2.437.626,2.437,2.052m-4.471.786h2.038c.838,0,1.109-.353,1.109-.757,0-.323-.256-.867-1.109-.867h-2.041Zm0,2.987h2.038c.545,0,1.321-.182,1.321-.849,0-.641-.776-.968-1.321-.968h-2.041Z" transform="translate(-0.362 -23.256)"/>
    <path id="Path_49" data-name="Path 49" d="M868.092-25.843H864.4l-.605,1.333H862.35l3.169-7.065h1.453l3.169,7.065h-1.453Zm-1.847-4.248-1.312,3.008h2.625Z" transform="translate(-2.612 -23.257)"/>
    <path id="Path_50" data-name="Path 50" d="M883.326-31.535l-3.139,3.381,3.4,3.563v.08h-1.646l-2.95-3.128v3.128h-1.333v-7.065h1.333v2.987l2.685-2.987h1.656Z" transform="translate(-5.306 -23.257)"/>
    <path id="Path_51" data-name="Path 51" d="M896.194-24.511h-5.288v-7.065h5.288v1.292h-3.966v1.628h3.826v1.242h-3.826v1.594h3.966Z" transform="translate(-7.638 -23.257)"/>
    <path id="Path_52" data-name="Path 52" d="M910.093-24.513h-1.585l-2.052-2.361h-1.283v2.361h-1.331v-7.075c1.12,0,2.239.01,3.36.01a2.341,2.341,0,0,1,1.788.61,2.341,2.341,0,0,1,.756,1.731,2.1,2.1,0,0,1-1.787,2.22L910.1-24.6Zm-4.925-5.823v2.261H907.2a1.1,1.1,0,0,0,.861-.291,1.1,1.1,0,0,0,.349-.839,1.107,1.107,0,0,0-.351-.837,1.107,1.107,0,0,0-.859-.293Z" transform="translate(-9.915 -23.255)"/>
    <path id="Path_53" data-name="Path 53" d="M920.235-28.657l1.878-2.917h1.6v.06l-2.822,4.086v2.917H919.56v-2.917l-2.715-4.086v-.06h1.584Z" transform="translate(-12.209 -23.256)"/>
    <path id="Path_54" data-name="Path 54" d="M943.73-25.843h-3.694l-.605,1.333h-1.444l3.169-7.065h1.453l3.169,7.065h-1.453Zm-1.847-4.248-1.313,3.006h2.625Z" transform="translate(-15.927 -23.257)"/>
    <path id="Path_55" data-name="Path 55" d="M958.092-31.588h1.331v7.075H958.6v.009l-3.72-4.774v4.765H953.55v-7.065h1.08l3.463,4.379Z" transform="translate(-18.667 -23.255)"/>
    <path id="Path_56" data-name="Path 56" d="M973.609-28.1a3.345,3.345,0,0,1-.95,2.6,3.345,3.345,0,0,1-2.581.994H967.3v-7.065h2.776a3.335,3.335,0,0,1,2.537.951,3.335,3.335,0,0,1,.994,2.52M968.621-25.8h1.453a2.1,2.1,0,0,0,1.645-.647,2.1,2.1,0,0,0,.567-1.674,2.1,2.1,0,0,0-.617-1.591,2.1,2.1,0,0,0-1.595-.608h-1.453Z" transform="translate(-21.087 -23.259)"/>
    <path id="Path_57" data-name="Path 57" d="M994.672-31.535l-3.139,3.381,3.4,3.563v.08h-1.646l-2.958-3.128v3.128H989v-7.065h1.333v2.987l2.685-2.987h1.655Z" transform="translate(-24.906 -23.257)"/>
    <rect id="Rectangle_44" data-name="Rectangle 44" width="1.322" height="7.065" transform="translate(975.04 -54.832)"/>
    <path id="Path_58" data-name="Path 58" d="M1012.794-30.365h-2.241v-1.211h5.814v1.211h-2.242v5.854h-1.331Z" transform="translate(-28.7 -23.257)"/>
    <path id="Path_59" data-name="Path 59" d="M1030.018-25.429a3.719,3.719,0,0,1-2.685,1.049,3.472,3.472,0,0,1-2.7-.973,3.472,3.472,0,0,1-1.046-2.671,3.555,3.555,0,0,1,1.046-2.692,3.555,3.555,0,0,1,2.7-1.028,3.648,3.648,0,0,1,2.594,1.08l-.888.858a2.43,2.43,0,0,0-1.706-.666,2.316,2.316,0,0,0-1.768.68,2.316,2.316,0,0,0-.669,1.772,2.265,2.265,0,0,0,.674,1.751,2.265,2.265,0,0,0,1.763.642,2.605,2.605,0,0,0,1.776-.717Z" transform="translate(-30.998 -23.228)"/>
    <path id="Path_60" data-name="Path 60" d="M1042.367-24.5v-2.856h-3.473V-24.5h-1.333v-7.065h1.333v2.977h3.472v-2.977h1.322V-24.5Z" transform="translate(-33.456 -23.26)"/>
    <path id="Path_61" data-name="Path 61" d="M1057.031-24.511h-5.288v-7.065h5.288v1.292h-3.966v1.628h3.825v1.242h-3.825v1.594h3.966Z" transform="translate(-35.952 -23.257)"/>
    <path id="Path_62" data-name="Path 62" d="M1069.583-31.588h1.331v7.075h-.827v.009l-3.72-4.774v4.765h-1.331v-7.065h1.08l3.463,4.379Z" transform="translate(-38.294 -23.255)"/>
    <path id="Path_63" data-name="Path 63" d="M926.1-130.891a2.123,2.123,0,0,0,.4.432,1.787,1.787,0,0,0,.283.145l.114.04.169.01a.949.949,0,0,0,.563-.2c.063-.062.065-.07.153-.167a1.181,1.181,0,0,0,.109-.2.766.766,0,0,0,.048-.358.511.511,0,0,0-.058-.2l-.031-.065h0a.739.739,0,0,0,.077-.271.691.691,0,0,0-.052-.369q-.032-.084-.072-.165a2.377,2.377,0,0,0-.19-.216,1.346,1.346,0,0,0-.257-.154,1.362,1.362,0,0,0-.287-.08,1.121,1.121,0,0,0-.641.086,1.025,1.025,0,0,0-.292.208l-.044.045a.345.345,0,0,0-.078.094,1.3,1.3,0,0,0-.1.153.972.972,0,0,0-.095.357,1.222,1.222,0,0,0,.035.314,2.071,2.071,0,0,0,.248.566" transform="translate(-13.783 -5.448)"/>
    <path id="Path_64" data-name="Path 64" d="M923.909-131.3a1.235,1.235,0,0,0-.359.128l-.106.06-.146.1-.394.271-.782.55c-.266.178-.513.385-.8.543l-.87.462-.87.462c-.256.128-.581.25-.867.375s-.6.215-.908.324-.607.165-.913.257a7.359,7.359,0,0,1-1.907.194,3.983,3.983,0,0,1-.925-.135l-.453-.159-.4-.242-.324-.323-.224-.385-.128-.473c-.017-.128-.019-.312-.026-.466a5.91,5.91,0,0,1,.205-1.909l.294-.939a3.969,3.969,0,0,0,.257-1.034c-.009-.062-.022-.128-.036-.186a.765.765,0,0,0-.046-.121,1.224,1.224,0,0,0-.24-.3.875.875,0,0,0-.227-.144l-.054-.029c-.024-.009.042.014-.055-.022h-.032l-.045-.008-.177-.022a.784.784,0,0,0-.285.017,1.257,1.257,0,0,0-.165.032l-.164.077a1.193,1.193,0,0,0-.428.5l-.006.013-.008.031-.351,1.3-.167.652-.041.163a1.42,1.42,0,0,0-.028.194l-.039.357-.01.1-.2.081c-.04.015-.117.05-.128.05l-.15.046-.6.182c-.187.054-.43.135-.573.168l-.62.105-1.23.2c-.408.014-.811.068-1.229.051a8.592,8.592,0,0,1-1.234-.109l-.607-.112-.6-.178a4.753,4.753,0,0,1-1.1-.537,3.223,3.223,0,0,1-.828-.868c-.242-.331-.473-.708-.758-1.026a2.209,2.209,0,0,0-1.068-.786,3.788,3.788,0,0,0-.663-.108,2.939,2.939,0,0,0-.662.01,2.978,2.978,0,0,0-1.263.484c-.176.128-.358.264-.527.405l-.473.455q-.324.363-.614.753l.058-.335.033-.19.037-.189.154-.812-.016.1a1.046,1.046,0,0,0,.035-.417,1.345,1.345,0,0,0-.074-.237l-.091-.151a2.688,2.688,0,0,0-.3-.287l-.256-.128a1.027,1.027,0,0,0-.223-.058,1.479,1.479,0,0,0-.2,0,1.2,1.2,0,0,0-.227.054l-.128.064a1.238,1.238,0,0,0-.166.14,1.771,1.771,0,0,0-.128.128c-.058.106-.112.218-.159.326v.008l-.006.038-.151.861-.141.881-.071.441c-.021.139-.055.305-.063.453l-.022.23-.172.146c-.285.224-.513.481-.831.693l-.927.641-.926.494a8.746,8.746,0,0,1-1.026.432l-.257.1-.11.041-.128.035-.513.137c-.173.042-.337.1-.513.128l-.557.082-.531.078-.513.018a4.522,4.522,0,0,1-1.084-.065,1.357,1.357,0,0,1-.235-.038l-.226-.08c-.074-.028-.154-.047-.227-.08l-.19-.128a2.117,2.117,0,0,1-.19-.128l-.137-.163a1.536,1.536,0,0,1-.145-.164l-.128-.257-.128-.257c0-.01-.044-.149-.063-.218a3.612,3.612,0,0,1-.135-.513,5.159,5.159,0,0,1-.12-1.04c0-.2.015-.349,0-.589l-.017-.19a2.042,2.042,0,0,0-.08-.2.842.842,0,0,0-.294-.35,1.241,1.241,0,0,0-.277-.141,1.633,1.633,0,0,0-.4-.079,1.179,1.179,0,0,0-.407.082,1,1,0,0,0-.326.257c-.27.355-.414.649-.627.976-.094.149-.2.348-.282.455l-.34.448-.34.448a2.29,2.29,0,0,1-.158.2l-.2.2-.77.776a10.656,10.656,0,0,1-.911.608,1.889,1.889,0,0,1-.5.2.793.793,0,0,1-.46.023c-.34-.073-.446-.4-.482-.757v-.01l-.033-.419a1.758,1.758,0,0,1,.014-.435,3.94,3.94,0,0,1,.047-.423l.105-.434.213-.852.331-.826c.055-.128.109-.286.167-.4l.194-.4c.064-.14.128-.257.194-.413a1.012,1.012,0,0,0,.072-.513.966.966,0,0,0-.257-.469,2.017,2.017,0,0,0-.2-.151c-.087-.031-.178-.06-.269-.085a1.12,1.12,0,0,0-.231-.013.587.587,0,0,0-.14.008l-.137.037a.84.84,0,0,0-.4.373l-.216.385-.128.241-.095.214-.385.856-.095.214a2.23,2.23,0,0,0-.085.249l-.137.448-.094.305-.147.036-.65.162c-.224.036-.457.056-.685.086a4.581,4.581,0,0,1-.664.06l-.664-.008a10.323,10.323,0,0,1-1.346-.167c-.437-.115-.875-.2-1.312-.358a12.273,12.273,0,0,1-1.283-.471l-.956-.385c.453-.345.908-.684,1.349-1.038.493-.485,1.013-.938,1.48-1.448.427-.543.921-1.049,1.293-1.621l.559-.858.28-.428c.1-.165.163-.309.246-.464a19.983,19.983,0,0,0,.909-1.85,17.227,17.227,0,0,0,.739-1.924l.321-.984.232-1a17.574,17.574,0,0,0,.367-2.027c.128-.676.121-1.367.183-2.052.031-.685,0-1.378-.01-2.064a21.471,21.471,0,0,0-.641-4.057,15.676,15.676,0,0,0-1.529-3.817,9.9,9.9,0,0,0-2.764-3.062,6.685,6.685,0,0,0-3.894-1.3,9.671,9.671,0,0,0-4.038.888,11.733,11.733,0,0,0-3.335,2.437c-.5.5-.909,1.04-1.356,1.566-.4.564-.84,1.092-1.193,1.687-.377.581-.744,1.165-1.058,1.769a19.269,19.269,0,0,0-.92,1.846l-.865,1.874c-.274.629-.481,1.283-.723,1.916s-.487,1.263-.686,1.939l-.566,1.974-.35,1.225.49-5.787c.235-2.867.5-5.731.708-8.594l.331-4.3.041-.537a3.855,3.855,0,0,0,.022-.6.924.924,0,0,0-.154-.4,1.549,1.549,0,0,0-.111-.128c-.053-.042-.109-.085-.166-.128a1.5,1.5,0,0,0-.174-.109,1.175,1.175,0,0,0-.128-.041l-.128-.037c.008,0-.115-.021-.076-.01h-.081l-.109.012a2.141,2.141,0,0,0-.213.037l-.121.059-.128.059c.035-.021-.059.038-.059.038l-.021.015-.038.035-.074.071a.861.861,0,0,0-.195.385.709.709,0,0,0-.023.155l-.013.151L850.8-161.6,850.131-153l-1.336,17.2-1.256,17.21h.037l1.283,1.946v.049h.073l.462-5.259c.2-1.742.444-3.489.664-5.233l.169-1.308.232-1.292.464-2.6.462-2.6.235-1.292.294-1.283.586-2.565.69-2.547.345-1.274c.117-.413.269-.829.4-1.243l.825-2.487c.3-.821.672-1.624,1.006-2.437l.513-1.216.584-1.154a23.576,23.576,0,0,1,2.87-4.348,11.337,11.337,0,0,1,1.85-1.755,5.744,5.744,0,0,1,1.054-.676,5.882,5.882,0,0,1,.552-.3l.619-.227a5.721,5.721,0,0,1,4.823.117,12.388,12.388,0,0,1,1.026.7c.308.28.609.576.9.875.242.34.513.641.736,1,.2.377.459.786.613,1.135.159.4.337.786.481,1.188l.368,1.231.257,1.252c.079.421.108.87.164,1.3a21.021,21.021,0,0,1-.164,5.143,22.012,22.012,0,0,1-1.451,4.972,21.968,21.968,0,0,1-1.2,2.3l-.335.568c-.1.16-.244.342-.364.513-.256.342-.495.7-.77,1.026a16.805,16.805,0,0,1-3.775,3.207l-.7-.241c-.3-.1-.589-.151-.885-.23a4.422,4.422,0,0,0-.464-.1l-.471-.068a7.328,7.328,0,0,0-.93-.1l-.907-.038-.964.067-.943.074-.885.2a9.081,9.081,0,0,0-.913.23l-.88.314a17.3,17.3,0,0,0-1.676.725,16.309,16.309,0,0,0-1.612.949c-.141.1-.219.14-.409.282l-.359.277c-.128.1-.234.171-.366.29a1.141,1.141,0,0,0-.34.56,1.035,1.035,0,0,0-.014.362l.022.112v.028l.016.064.009.019.033.074a.948.948,0,0,0,.473.513,1.108,1.108,0,0,0,.169.072l.111.024a1.433,1.433,0,0,0,.149.028l.114.009.458.038c.609.053,1.22.109,1.834.105l.918.017.923-.038c.621-.014,1.224-.077,1.823-.149a17.774,17.774,0,0,0,1.821-.29,17.846,17.846,0,0,0,1.787-.458c.593-.164,1.154-.418,1.733-.623.521-.222,1.026-.478,1.539-.72l2.454.952c.444.153.888.351,1.33.459a10.961,10.961,0,0,0,1.367.342,8.908,8.908,0,0,0,1.4.195l.69.046.172.01h.194l.358-.013a8.83,8.83,0,0,0,1.321-.176l.024.4a1.991,1.991,0,0,0,.022.257l.05.248a2.6,2.6,0,0,0,.135.493,2.589,2.589,0,0,0,.232.5,2.735,2.735,0,0,0,.312.414,2.46,2.46,0,0,0,.92.6,2.749,2.749,0,0,0,1.026.128,3.558,3.558,0,0,0,.99-.2c.333-.128.621-.289.927-.436.274-.169.513-.363.77-.552a7.936,7.936,0,0,0,.7-.684,5.662,5.662,0,0,0,.632-.713l.385-.5.15.439a1.976,1.976,0,0,0,.169.362l.186.354a4.8,4.8,0,0,0,.482.649,1.53,1.53,0,0,0,.288.257l.3.248c.128.08.235.128.353.2a3.817,3.817,0,0,0,.354.176l.375.128a2.742,2.742,0,0,0,.376.112l.385.071a3.272,3.272,0,0,0,.385.059l.78.04c.376-.022.755-.024,1.13-.06.371-.063.748-.105,1.117-.185s.736-.183,1.1-.292l1.068-.357,1.049-.454c.345-.159.667-.364,1-.544.141-.086.28-.183.423-.276a4.63,4.63,0,0,0-.014.557l.01.9a2.489,2.489,0,0,0,.071.3c.062.082.089.192.187.245a.6.6,0,0,0,.268.141.733.733,0,0,0,.3.05.658.658,0,0,0,.557-.249c.1-.167.189-.35.269-.522l.513-1.05.257-.513.309-.5.618-.991a4.233,4.233,0,0,1,.318-.471l.344-.446a4.175,4.175,0,0,1,.385-.43,4.967,4.967,0,0,1,.395-.4,2.815,2.815,0,0,1,.418-.312,1.19,1.19,0,0,1,.4-.144,2.2,2.2,0,0,1,.351.042c.04.026.028-.008.1.037l.046.031h0l.055.065a2.072,2.072,0,0,1,.24.316l.115.169.12.186.243.372.128.185c.077.1.118.139.18.21a4.658,4.658,0,0,0,.688.641,7.248,7.248,0,0,0,.835.52,8.331,8.331,0,0,0,.845.363c.3.09.609.2.9.272l.87.174a8.48,8.48,0,0,0,.936.11,6.412,6.412,0,0,0,.915.041l.886-.027h.027l.074-.006.054-.008.11-.017.219-.032.439-.065.877-.128.219-.032.11-.017.054-.008.074-.015.027-.008.427-.128.785-.223c.051.173.1.348.159.513.114.213.213.432.344.632.154.186.3.385.459.552a4.511,4.511,0,0,0,.522.446l.6.351.649.228a3.8,3.8,0,0,0,.666.141,3.391,3.391,0,0,0,.671.081l.673.033.99-.045.981-.135a15.087,15.087,0,0,0,1.924-.468,9,9,0,0,0,.945-.321c.308-.128.627-.23.929-.369a18.074,18.074,0,0,0,1.76-.917c.6-.321,1.107-.722,1.658-1.088a1.124,1.124,0,0,0,.412-1.332,1.124,1.124,0,0,0-1.2-.707"/>
    <path id="Path_65" data-name="Path 65" d="M882.332-127.677h0l.01-.018Z" transform="translate(-6.13 -6.334)"/>
    <path id="Path_66" data-name="Path 66" d="M907.7-62.388a4.993,4.993,0,0,1-1.517,3.663,4.993,4.993,0,0,1-3.663,1.517,5,5,0,0,1-3.663-1.517,4.993,4.993,0,0,1-1.517-3.663v-48.9h-6.661v47.424a11.46,11.46,0,0,0,.925,4.588,12.027,12.027,0,0,0,2.552,3.775,12.029,12.029,0,0,0,3.775,2.552,11.459,11.459,0,0,0,4.588.925,11.721,11.721,0,0,0,4.625-.925,11.463,11.463,0,0,0,3.774-2.552,12.314,12.314,0,0,0,2.516-3.775,11.447,11.447,0,0,0,.925-4.588v-47.424H907.7Z" transform="translate(-7.599 -9.223)"/>
    <path id="Path_67" data-name="Path 67" d="M934.829-62.125v-43.353a5.684,5.684,0,0,0-.758-2.906,5.8,5.8,0,0,0-1.98-2.064,6,6,0,0,0-2.693-.885,6.017,6.017,0,0,0-2.99.548,7.973,7.973,0,0,1,.843,3.622v43.353c-.228,9.933,5.552,11.886,8.2,11.886h16.187v-7.543H935.449a5.752,5.752,0,0,1-.618-2.656" transform="translate(-13.888 -9.212)"/>
    <path id="Path_68" data-name="Path 68" d="M1005.829-107.814a12.031,12.031,0,0,0-3.775-2.552,11.461,11.461,0,0,0-4.588-.925,11.723,11.723,0,0,0-4.625.925,11.458,11.458,0,0,0-3.773,2.552,12.314,12.314,0,0,0-2.516,3.774,11.46,11.46,0,0,0-.926,4.589v47.039h6.661V-76.129h10.366v23.717h6.661V-99.451a11.477,11.477,0,0,0-.925-4.589,12.047,12.047,0,0,0-2.552-3.773m-3.183,24.671H992.291v-17.789A5,5,0,0,1,993.8-104.6a4.994,4.994,0,0,1,3.663-1.517,5,5,0,0,1,3.665,1.517,5,5,0,0,1,1.517,3.663Z" transform="translate(-24.312 -9.223)"/>
    <path id="Path_69" data-name="Path 69" d="M965.465-99.117h-.029v46.7h7.582V-75.886h.03v-35.408h-7.582Z" transform="translate(-20.759 -9.224)"/>
    <path id="Path_70" data-name="Path 70" d="M1063.265-111.292v12.177h-.03v46.7h7.582V-75.884h.028v-35.408Z" transform="translate(-37.974 -9.223)"/>
    <path id="Path_71" data-name="Path 71" d="M875.379-78.582a14.942,14.942,0,0,0-3.021.208q-1.443.173-2.763.4t-2.769.482a10.2,10.2,0,0,1-2.574.028,7.031,7.031,0,0,1-2.443-.808,5.5,5.5,0,0,0-1.13,3.693,6.175,6.175,0,0,0,1.212,3.314,6.329,6.329,0,0,0,2.837,2.1,5.387,5.387,0,0,0,3.84-.045l.368-.14V-65.5h-.011a1.888,1.888,0,0,1-.008.209,5.826,5.826,0,0,1-.673,2.437,6.277,6.277,0,0,1-1.643,1.938,5.372,5.372,0,0,1-2.4,1.094,6.028,6.028,0,0,1-2.654-.085,5.5,5.5,0,0,1-2.274-1.179,6.676,6.676,0,0,1-1.558-1.98,5.5,5.5,0,0,1-.59-2.565V-99.323a5.658,5.658,0,0,1,1.938-4.422,5.854,5.854,0,0,1,4.633-1.475,6,6,0,0,1,2.358.843,5.873,5.873,0,0,1,1.769,1.643,5.872,5.872,0,0,1,.927,2.191,6.183,6.183,0,0,1,0,2.484l-.505,2.527c-.027.128-.051.25-.071.375h8.064a13.4,13.4,0,0,0,.136-4.248,13.341,13.341,0,0,0-1.853-5.349A13.094,13.094,0,0,0,870.6-108.8a13.725,13.725,0,0,0-5.475-2.148,12.477,12.477,0,0,0-5.854.385,14.217,14.217,0,0,0-4.969,2.693,13.629,13.629,0,0,0-3.453,4.464,12.886,12.886,0,0,0-1.307,5.772v32.008a12.9,12.9,0,0,0,1.221,5.6,14.182,14.182,0,0,0,3.244,4.421,13.287,13.287,0,0,0,4.716,2.781,13.014,13.014,0,0,0,5.728.589,13.287,13.287,0,0,0,5.475-1.811,13.454,13.454,0,0,0,4.043-3.707,13.7,13.7,0,0,0,2.232-5.012,12.2,12.2,0,0,0,.3-2.592h.008V-78.6h-1.129Z" transform="translate(-0.358 -9.252)"/>
    <path id="Path_72" data-name="Path 72" d="M1041.551-76.191l-10.559-31.447h-.014a4.834,4.834,0,0,0-.457-1.065,5.094,5.094,0,0,0-1.737-1.812,5.274,5.274,0,0,0-2.368-.777,5.279,5.279,0,0,0-2.625.481,7.019,7.019,0,0,1,.74,3.181v1.944h0v53.706h6.661V-85.662l10.361,29.441v.074L1043-51.979h5.219v-59.409h-6.661Z" transform="translate(-31.032 -9.206)"/>
  </g>
</svg>
